<mxfile host="www.draw.io" modified="2020-01-09T06:38:37.086Z" agent="Mozilla/5.0 (Windows NT 6.1; Win64; x64) AppleWebKit/537.36 (KHTML, like Gecko) Chrome/79.0.3945.88 Safari/537.36" etag="p9At_ypT6ZFjhu5TStyp" version="12.4.9" type="github">
  <diagram id="eVeeVnITEzxCwLuN9Q4m" name="第 1 页">
    <mxGraphModel dx="2222" dy="794" grid="0" gridSize="10" guides="1" tooltips="1" connect="1" arrows="1" fold="1" page="0" pageScale="1" pageWidth="827" pageHeight="1169" math="0" shadow="0">
      <root>
        <mxCell id="0"/>
        <mxCell id="1" parent="0"/>
        <mxCell id="7sWpSxuRdArO_M786RSF-38" style="edgeStyle=orthogonalEdgeStyle;rounded=0;orthogonalLoop=1;jettySize=auto;html=1;exitX=1;exitY=0.5;exitDx=0;exitDy=0;align=left;" edge="1" parent="1" source="7sWpSxuRdArO_M786RSF-9" target="7sWpSxuRdArO_M786RSF-37">
          <mxGeometry relative="1" as="geometry"/>
        </mxCell>
        <mxCell id="7sWpSxuRdArO_M786RSF-9" value="Fabric-CA-Server" style="shape=process;whiteSpace=wrap;html=1;backgroundOutline=1;align=left;" vertex="1" parent="1">
          <mxGeometry x="-528" y="142" width="130" height="44" as="geometry"/>
        </mxCell>
        <mxCell id="7sWpSxuRdArO_M786RSF-10" value="&lt;ul&gt;&lt;li&gt;type orderer&lt;/li&gt;&lt;li&gt;orgName 36sn.com&lt;/li&gt;&lt;li&gt;port 9100&lt;/li&gt;&lt;/ul&gt;" style="text;strokeColor=none;fillColor=none;html=1;whiteSpace=wrap;verticalAlign=middle;overflow=hidden;align=left;" vertex="1" parent="1">
          <mxGeometry x="-553" y="81" width="155" height="61" as="geometry"/>
        </mxCell>
        <mxCell id="7sWpSxuRdArO_M786RSF-19" value="ordererOrganizations/36sn.com/ca/root" style="swimlane;fontStyle=0;childLayout=stackLayout;horizontal=1;startSize=26;fillColor=none;horizontalStack=0;resizeParent=1;resizeParentMax=0;resizeLast=0;collapsible=1;marginBottom=0;align=left;" vertex="1" parent="1">
          <mxGeometry x="-128" y="205" width="217" height="156" as="geometry"/>
        </mxCell>
        <mxCell id="7sWpSxuRdArO_M786RSF-20" value="msp" style="text;strokeColor=none;fillColor=none;align=left;verticalAlign=top;spacingLeft=4;spacingRight=4;overflow=hidden;rotatable=0;points=[[0,0.5],[1,0.5]];portConstraint=eastwest;" vertex="1" parent="7sWpSxuRdArO_M786RSF-19">
          <mxGeometry y="26" width="217" height="26" as="geometry"/>
        </mxCell>
        <mxCell id="7sWpSxuRdArO_M786RSF-50" value="tls" style="text;strokeColor=none;fillColor=none;align=left;verticalAlign=top;spacingLeft=4;spacingRight=4;overflow=hidden;rotatable=0;points=[[0,0.5],[1,0.5]];portConstraint=eastwest;" vertex="1" parent="7sWpSxuRdArO_M786RSF-19">
          <mxGeometry y="52" width="217" height="26" as="geometry"/>
        </mxCell>
        <mxCell id="7sWpSxuRdArO_M786RSF-22" value="fabric-ca-server-config.yaml" style="text;strokeColor=none;fillColor=none;align=left;verticalAlign=top;spacingLeft=4;spacingRight=4;overflow=hidden;rotatable=0;points=[[0,0.5],[1,0.5]];portConstraint=eastwest;" vertex="1" parent="7sWpSxuRdArO_M786RSF-19">
          <mxGeometry y="78" width="217" height="26" as="geometry"/>
        </mxCell>
        <mxCell id="7sWpSxuRdArO_M786RSF-24" value="IssuerPublicKey" style="text;strokeColor=none;fillColor=none;align=left;verticalAlign=top;spacingLeft=4;spacingRight=4;overflow=hidden;rotatable=0;points=[[0,0.5],[1,0.5]];portConstraint=eastwest;" vertex="1" parent="7sWpSxuRdArO_M786RSF-19">
          <mxGeometry y="104" width="217" height="26" as="geometry"/>
        </mxCell>
        <mxCell id="7sWpSxuRdArO_M786RSF-23" value="IssuerRevocationPublicKey" style="text;strokeColor=none;fillColor=none;align=left;verticalAlign=top;spacingLeft=4;spacingRight=4;overflow=hidden;rotatable=0;points=[[0,0.5],[1,0.5]];portConstraint=eastwest;" vertex="1" parent="7sWpSxuRdArO_M786RSF-19">
          <mxGeometry y="130" width="217" height="26" as="geometry"/>
        </mxCell>
        <mxCell id="7sWpSxuRdArO_M786RSF-25" value="msp" style="swimlane;fontStyle=0;childLayout=stackLayout;horizontal=1;startSize=26;fillColor=none;horizontalStack=0;resizeParent=1;resizeParentMax=0;resizeLast=0;collapsible=1;marginBottom=0;align=left;" vertex="1" parent="1">
          <mxGeometry x="357" y="188" width="77" height="52" as="geometry"/>
        </mxCell>
        <mxCell id="7sWpSxuRdArO_M786RSF-26" value="keystore" style="text;strokeColor=none;fillColor=none;align=left;verticalAlign=top;spacingLeft=4;spacingRight=4;overflow=hidden;rotatable=0;points=[[0,0.5],[1,0.5]];portConstraint=eastwest;" vertex="1" parent="7sWpSxuRdArO_M786RSF-25">
          <mxGeometry y="26" width="77" height="26" as="geometry"/>
        </mxCell>
        <mxCell id="7sWpSxuRdArO_M786RSF-31" value="keystore" style="swimlane;fontStyle=0;childLayout=stackLayout;horizontal=1;startSize=26;fillColor=none;horizontalStack=0;resizeParent=1;resizeParentMax=0;resizeLast=0;collapsible=1;marginBottom=0;align=left;" vertex="1" parent="1">
          <mxGeometry x="525" y="180" width="150" height="104" as="geometry"/>
        </mxCell>
        <mxCell id="7sWpSxuRdArO_M786RSF-32" value="*_sk" style="text;strokeColor=none;fillColor=none;align=left;verticalAlign=top;spacingLeft=4;spacingRight=4;overflow=hidden;rotatable=0;points=[[0,0.5],[1,0.5]];portConstraint=eastwest;" vertex="1" parent="7sWpSxuRdArO_M786RSF-31">
          <mxGeometry y="26" width="150" height="26" as="geometry"/>
        </mxCell>
        <mxCell id="7sWpSxuRdArO_M786RSF-34" value="IssuerRevocationPrivateKey" style="text;strokeColor=none;fillColor=none;align=left;verticalAlign=top;spacingLeft=4;spacingRight=4;overflow=hidden;rotatable=0;points=[[0,0.5],[1,0.5]];portConstraint=eastwest;" vertex="1" parent="7sWpSxuRdArO_M786RSF-31">
          <mxGeometry y="52" width="150" height="26" as="geometry"/>
        </mxCell>
        <mxCell id="7sWpSxuRdArO_M786RSF-35" value="IssuerSecretKey" style="text;strokeColor=none;fillColor=none;align=left;verticalAlign=top;spacingLeft=4;spacingRight=4;overflow=hidden;rotatable=0;points=[[0,0.5],[1,0.5]];portConstraint=eastwest;" vertex="1" parent="7sWpSxuRdArO_M786RSF-31">
          <mxGeometry y="78" width="150" height="26" as="geometry"/>
        </mxCell>
        <mxCell id="7sWpSxuRdArO_M786RSF-33" style="edgeStyle=orthogonalEdgeStyle;rounded=0;orthogonalLoop=1;jettySize=auto;html=1;exitX=1;exitY=0.5;exitDx=0;exitDy=0;entryX=0.5;entryY=0;entryDx=0;entryDy=0;align=left;" edge="1" parent="1" source="7sWpSxuRdArO_M786RSF-26" target="7sWpSxuRdArO_M786RSF-31">
          <mxGeometry relative="1" as="geometry"/>
        </mxCell>
        <mxCell id="7sWpSxuRdArO_M786RSF-41" style="edgeStyle=orthogonalEdgeStyle;rounded=0;orthogonalLoop=1;jettySize=auto;html=1;exitX=1;exitY=0.5;exitDx=0;exitDy=0;align=left;" edge="1" parent="1" source="7sWpSxuRdArO_M786RSF-36" target="7sWpSxuRdArO_M786RSF-40">
          <mxGeometry relative="1" as="geometry"/>
        </mxCell>
        <mxCell id="7sWpSxuRdArO_M786RSF-36" value="Fabric-CA-Client" style="shape=process;whiteSpace=wrap;html=1;backgroundOutline=1;align=left;" vertex="1" parent="1">
          <mxGeometry x="-536" y="248" width="130" height="44" as="geometry"/>
        </mxCell>
        <mxCell id="7sWpSxuRdArO_M786RSF-48" style="edgeStyle=orthogonalEdgeStyle;rounded=0;orthogonalLoop=1;jettySize=auto;html=1;exitX=1;exitY=0.5;exitDx=0;exitDy=0;entryX=0;entryY=0.5;entryDx=0;entryDy=0;align=left;" edge="1" parent="1" source="7sWpSxuRdArO_M786RSF-37" target="7sWpSxuRdArO_M786RSF-20">
          <mxGeometry relative="1" as="geometry"/>
        </mxCell>
        <mxCell id="7sWpSxuRdArO_M786RSF-37" value="Start" style="shape=process;whiteSpace=wrap;html=1;backgroundOutline=1;align=center;" vertex="1" parent="1">
          <mxGeometry x="-305" y="142" width="61" height="44" as="geometry"/>
        </mxCell>
        <mxCell id="7sWpSxuRdArO_M786RSF-51" style="edgeStyle=orthogonalEdgeStyle;rounded=0;orthogonalLoop=1;jettySize=auto;html=1;exitX=1;exitY=0.5;exitDx=0;exitDy=0;entryX=0;entryY=0.5;entryDx=0;entryDy=0;align=left;" edge="1" parent="1" source="7sWpSxuRdArO_M786RSF-40" target="7sWpSxuRdArO_M786RSF-50">
          <mxGeometry relative="1" as="geometry"/>
        </mxCell>
        <mxCell id="7sWpSxuRdArO_M786RSF-40" value="Enrolled" style="shape=process;whiteSpace=wrap;html=1;backgroundOutline=1;align=center;" vertex="1" parent="1">
          <mxGeometry x="-305" y="248" width="61" height="44" as="geometry"/>
        </mxCell>
        <mxCell id="7sWpSxuRdArO_M786RSF-49" style="edgeStyle=orthogonalEdgeStyle;rounded=0;orthogonalLoop=1;jettySize=auto;html=1;exitX=1;exitY=0.5;exitDx=0;exitDy=0;entryX=0.5;entryY=0;entryDx=0;entryDy=0;align=left;" edge="1" parent="1" source="7sWpSxuRdArO_M786RSF-20" target="7sWpSxuRdArO_M786RSF-25">
          <mxGeometry relative="1" as="geometry"/>
        </mxCell>
        <mxCell id="7sWpSxuRdArO_M786RSF-52" value="tls/msp" style="swimlane;fontStyle=0;childLayout=stackLayout;horizontal=1;startSize=26;fillColor=none;horizontalStack=0;resizeParent=1;resizeParentMax=0;resizeLast=0;collapsible=1;marginBottom=0;align=left;" vertex="1" parent="1">
          <mxGeometry x="189" y="290" width="77" height="104" as="geometry"/>
        </mxCell>
        <mxCell id="7sWpSxuRdArO_M786RSF-53" value="keystore" style="text;strokeColor=none;fillColor=none;align=left;verticalAlign=top;spacingLeft=4;spacingRight=4;overflow=hidden;rotatable=0;points=[[0,0.5],[1,0.5]];portConstraint=eastwest;" vertex="1" parent="7sWpSxuRdArO_M786RSF-52">
          <mxGeometry y="26" width="77" height="26" as="geometry"/>
        </mxCell>
        <mxCell id="7sWpSxuRdArO_M786RSF-57" value="signcerts" style="text;strokeColor=none;fillColor=none;align=left;verticalAlign=top;spacingLeft=4;spacingRight=4;overflow=hidden;rotatable=0;points=[[0,0.5],[1,0.5]];portConstraint=eastwest;" vertex="1" parent="7sWpSxuRdArO_M786RSF-52">
          <mxGeometry y="52" width="77" height="26" as="geometry"/>
        </mxCell>
        <mxCell id="7sWpSxuRdArO_M786RSF-58" value="tlscacerts" style="text;strokeColor=none;fillColor=none;align=left;verticalAlign=top;spacingLeft=4;spacingRight=4;overflow=hidden;rotatable=0;points=[[0,0.5],[1,0.5]];portConstraint=eastwest;" vertex="1" parent="7sWpSxuRdArO_M786RSF-52">
          <mxGeometry y="78" width="77" height="26" as="geometry"/>
        </mxCell>
        <mxCell id="7sWpSxuRdArO_M786RSF-54" style="edgeStyle=orthogonalEdgeStyle;rounded=0;orthogonalLoop=1;jettySize=auto;html=1;exitX=1;exitY=0.5;exitDx=0;exitDy=0;entryX=0.5;entryY=0;entryDx=0;entryDy=0;align=left;" edge="1" parent="1" source="7sWpSxuRdArO_M786RSF-50" target="7sWpSxuRdArO_M786RSF-52">
          <mxGeometry relative="1" as="geometry"/>
        </mxCell>
        <mxCell id="7sWpSxuRdArO_M786RSF-59" value="keystore" style="swimlane;fontStyle=0;childLayout=stackLayout;horizontal=1;startSize=26;fillColor=none;horizontalStack=0;resizeParent=1;resizeParentMax=0;resizeLast=0;collapsible=1;marginBottom=0;align=left;" vertex="1" parent="1">
          <mxGeometry x="357" y="301" width="150" height="104" as="geometry"/>
        </mxCell>
        <mxCell id="7sWpSxuRdArO_M786RSF-60" value="*_sk" style="text;strokeColor=none;fillColor=none;align=left;verticalAlign=top;spacingLeft=4;spacingRight=4;overflow=hidden;rotatable=0;points=[[0,0.5],[1,0.5]];portConstraint=eastwest;" vertex="1" parent="7sWpSxuRdArO_M786RSF-59">
          <mxGeometry y="26" width="150" height="26" as="geometry"/>
        </mxCell>
        <mxCell id="7sWpSxuRdArO_M786RSF-61" value="IssuerRevocationPrivateKey" style="text;strokeColor=none;fillColor=none;align=left;verticalAlign=top;spacingLeft=4;spacingRight=4;overflow=hidden;rotatable=0;points=[[0,0.5],[1,0.5]];portConstraint=eastwest;" vertex="1" parent="7sWpSxuRdArO_M786RSF-59">
          <mxGeometry y="52" width="150" height="26" as="geometry"/>
        </mxCell>
        <mxCell id="7sWpSxuRdArO_M786RSF-62" value="IssuerSecretKey" style="text;strokeColor=none;fillColor=none;align=left;verticalAlign=top;spacingLeft=4;spacingRight=4;overflow=hidden;rotatable=0;points=[[0,0.5],[1,0.5]];portConstraint=eastwest;" vertex="1" parent="7sWpSxuRdArO_M786RSF-59">
          <mxGeometry y="78" width="150" height="26" as="geometry"/>
        </mxCell>
        <mxCell id="7sWpSxuRdArO_M786RSF-63" style="edgeStyle=orthogonalEdgeStyle;rounded=0;orthogonalLoop=1;jettySize=auto;html=1;exitX=1;exitY=0.5;exitDx=0;exitDy=0;entryX=0.5;entryY=0;entryDx=0;entryDy=0;align=left;" edge="1" parent="1" source="7sWpSxuRdArO_M786RSF-53" target="7sWpSxuRdArO_M786RSF-59">
          <mxGeometry relative="1" as="geometry"/>
        </mxCell>
        <mxCell id="7sWpSxuRdArO_M786RSF-64" value="signcerts" style="swimlane;fontStyle=0;childLayout=stackLayout;horizontal=1;startSize=26;fillColor=none;horizontalStack=0;resizeParent=1;resizeParentMax=0;resizeLast=0;collapsible=1;marginBottom=0;align=left;" vertex="1" parent="1">
          <mxGeometry x="357" y="430" width="150" height="52" as="geometry"/>
        </mxCell>
        <mxCell id="7sWpSxuRdArO_M786RSF-65" value="cert.pem" style="text;strokeColor=none;fillColor=none;align=left;verticalAlign=top;spacingLeft=4;spacingRight=4;overflow=hidden;rotatable=0;points=[[0,0.5],[1,0.5]];portConstraint=eastwest;" vertex="1" parent="7sWpSxuRdArO_M786RSF-64">
          <mxGeometry y="26" width="150" height="26" as="geometry"/>
        </mxCell>
        <mxCell id="7sWpSxuRdArO_M786RSF-68" style="edgeStyle=orthogonalEdgeStyle;rounded=0;orthogonalLoop=1;jettySize=auto;html=1;exitX=1;exitY=0.5;exitDx=0;exitDy=0;align=left;" edge="1" parent="1" source="7sWpSxuRdArO_M786RSF-57" target="7sWpSxuRdArO_M786RSF-64">
          <mxGeometry relative="1" as="geometry">
            <Array as="points">
              <mxPoint x="312" y="355"/>
              <mxPoint x="312" y="417"/>
              <mxPoint x="432" y="417"/>
            </Array>
          </mxGeometry>
        </mxCell>
        <mxCell id="7sWpSxuRdArO_M786RSF-69" value="tlscacerts" style="swimlane;fontStyle=0;childLayout=stackLayout;horizontal=1;startSize=26;fillColor=none;horizontalStack=0;resizeParent=1;resizeParentMax=0;resizeLast=0;collapsible=1;marginBottom=0;align=left;" vertex="1" parent="1">
          <mxGeometry x="357" y="513" width="150" height="52" as="geometry"/>
        </mxCell>
        <mxCell id="7sWpSxuRdArO_M786RSF-70" value="cert.pem" style="text;strokeColor=none;fillColor=none;align=left;verticalAlign=top;spacingLeft=4;spacingRight=4;overflow=hidden;rotatable=0;points=[[0,0.5],[1,0.5]];portConstraint=eastwest;" vertex="1" parent="7sWpSxuRdArO_M786RSF-69">
          <mxGeometry y="26" width="150" height="26" as="geometry"/>
        </mxCell>
        <mxCell id="7sWpSxuRdArO_M786RSF-71" style="edgeStyle=orthogonalEdgeStyle;rounded=0;orthogonalLoop=1;jettySize=auto;html=1;exitX=1;exitY=0.5;exitDx=0;exitDy=0;entryX=0.5;entryY=0;entryDx=0;entryDy=0;align=left;" edge="1" parent="1" source="7sWpSxuRdArO_M786RSF-58" target="7sWpSxuRdArO_M786RSF-69">
          <mxGeometry relative="1" as="geometry">
            <Array as="points">
              <mxPoint x="293" y="381"/>
              <mxPoint x="293" y="496"/>
              <mxPoint x="432" y="496"/>
            </Array>
          </mxGeometry>
        </mxCell>
        <mxCell id="7sWpSxuRdArO_M786RSF-72" value="ordererOrganizations/36sn.com/ca/root/tls" style="swimlane;fontStyle=0;childLayout=stackLayout;horizontal=1;startSize=26;fillColor=none;horizontalStack=0;resizeParent=1;resizeParentMax=0;resizeLast=0;collapsible=1;marginBottom=0;align=left;" vertex="1" parent="1">
          <mxGeometry x="690" y="359" width="256" height="130" as="geometry"/>
        </mxCell>
        <mxCell id="7sWpSxuRdArO_M786RSF-73" value="server.key" style="text;strokeColor=none;fillColor=none;align=left;verticalAlign=top;spacingLeft=4;spacingRight=4;overflow=hidden;rotatable=0;points=[[0,0.5],[1,0.5]];portConstraint=eastwest;" vertex="1" parent="7sWpSxuRdArO_M786RSF-72">
          <mxGeometry y="26" width="256" height="26" as="geometry"/>
        </mxCell>
        <mxCell id="7sWpSxuRdArO_M786RSF-79" value="server.crt" style="text;strokeColor=none;fillColor=none;align=left;verticalAlign=top;spacingLeft=4;spacingRight=4;overflow=hidden;rotatable=0;points=[[0,0.5],[1,0.5]];portConstraint=eastwest;" vertex="1" parent="7sWpSxuRdArO_M786RSF-72">
          <mxGeometry y="52" width="256" height="26" as="geometry"/>
        </mxCell>
        <mxCell id="7sWpSxuRdArO_M786RSF-81" value="ca.crt" style="text;strokeColor=none;fillColor=none;align=left;verticalAlign=top;spacingLeft=4;spacingRight=4;overflow=hidden;rotatable=0;points=[[0,0.5],[1,0.5]];portConstraint=eastwest;" vertex="1" parent="7sWpSxuRdArO_M786RSF-72">
          <mxGeometry y="78" width="256" height="26" as="geometry"/>
        </mxCell>
        <mxCell id="7sWpSxuRdArO_M786RSF-83" value="删除msp" style="text;strokeColor=none;fillColor=none;align=left;verticalAlign=top;spacingLeft=4;spacingRight=4;overflow=hidden;rotatable=0;points=[[0,0.5],[1,0.5]];portConstraint=eastwest;" vertex="1" parent="7sWpSxuRdArO_M786RSF-72">
          <mxGeometry y="104" width="256" height="26" as="geometry"/>
        </mxCell>
        <mxCell id="7sWpSxuRdArO_M786RSF-78" style="edgeStyle=orthogonalEdgeStyle;rounded=0;orthogonalLoop=1;jettySize=auto;html=1;exitX=1;exitY=0.5;exitDx=0;exitDy=0;entryX=0;entryY=0.5;entryDx=0;entryDy=0;align=left;" edge="1" parent="1" source="7sWpSxuRdArO_M786RSF-60" target="7sWpSxuRdArO_M786RSF-73">
          <mxGeometry relative="1" as="geometry"/>
        </mxCell>
        <mxCell id="7sWpSxuRdArO_M786RSF-80" style="edgeStyle=orthogonalEdgeStyle;rounded=0;orthogonalLoop=1;jettySize=auto;html=1;exitX=1;exitY=0.5;exitDx=0;exitDy=0;entryX=0;entryY=0.5;entryDx=0;entryDy=0;align=left;" edge="1" parent="1" source="7sWpSxuRdArO_M786RSF-65" target="7sWpSxuRdArO_M786RSF-79">
          <mxGeometry relative="1" as="geometry">
            <Array as="points">
              <mxPoint x="602" y="469"/>
              <mxPoint x="602" y="424"/>
            </Array>
          </mxGeometry>
        </mxCell>
        <mxCell id="7sWpSxuRdArO_M786RSF-82" style="edgeStyle=orthogonalEdgeStyle;rounded=0;orthogonalLoop=1;jettySize=auto;html=1;exitX=1;exitY=0.5;exitDx=0;exitDy=0;align=left;" edge="1" parent="1" source="7sWpSxuRdArO_M786RSF-70" target="7sWpSxuRdArO_M786RSF-81">
          <mxGeometry relative="1" as="geometry">
            <Array as="points">
              <mxPoint x="620" y="552"/>
              <mxPoint x="620" y="450"/>
            </Array>
          </mxGeometry>
        </mxCell>
        <mxCell id="7sWpSxuRdArO_M786RSF-84" style="edgeStyle=orthogonalEdgeStyle;rounded=0;orthogonalLoop=1;jettySize=auto;html=1;exitX=1;exitY=0.5;exitDx=0;exitDy=0;align=left;" edge="1" source="7sWpSxuRdArO_M786RSF-85" target="7sWpSxuRdArO_M786RSF-86" parent="1">
          <mxGeometry relative="1" as="geometry"/>
        </mxCell>
        <mxCell id="7sWpSxuRdArO_M786RSF-85" value="Fabric-CA-Client" style="shape=process;whiteSpace=wrap;html=1;backgroundOutline=1;align=left;" vertex="1" parent="1">
          <mxGeometry x="-532" y="374" width="130" height="44" as="geometry"/>
        </mxCell>
        <mxCell id="7sWpSxuRdArO_M786RSF-86" value="Enrolled" style="shape=process;whiteSpace=wrap;html=1;backgroundOutline=1;align=center;" vertex="1" parent="1">
          <mxGeometry x="-305" y="374" width="61" height="44" as="geometry"/>
        </mxCell>
        <mxCell id="7sWpSxuRdArO_M786RSF-87" value="&lt;ul&gt;&lt;li&gt;--enrollment.profile tls&lt;/li&gt;&lt;/ul&gt;" style="text;strokeColor=none;fillColor=none;html=1;whiteSpace=wrap;verticalAlign=middle;overflow=hidden;align=left;" vertex="1" parent="1">
          <mxGeometry x="-560.5" y="334" width="175.5" height="30" as="geometry"/>
        </mxCell>
      </root>
    </mxGraphModel>
  </diagram>
</mxfile>
